<svg width="600" height="400" viewBox="0 0 600 400" fill="none" xmlns="http://www.w3.org/2000/svg">
  <rect width="600" height="400" fill="#F5F8FF"/>
  <circle cx="300" cy="200" r="150" fill="#E3EAFF"/>
  <path d="M300 50C368.5 50 425 106.5 425 175C425 243.5 368.5 300 300 300C231.5 300 175 243.5 175 175C175 106.5 231.5 50 300 50Z" stroke="#1E4C88" stroke-width="6"/>
  <circle cx="300" cy="175" r="80" fill="#1E4C88" fill-opacity="0.2"/>
  <path d="M300 120C330.38 120 355 144.62 355 175C355 205.38 330.38 230 300 230C269.62 230 245 205.38 245 175C245 144.62 269.62 120 300 120Z" stroke="#1E4C88" stroke-width="4"/>
  
  <!-- Network lines -->
  <line x1="300" y1="230" x2="300" y2="280" stroke="#1E4C88" stroke-width="2"/>
  <line x1="245" y1="175" x2="195" y2="175" stroke="#1E4C88" stroke-width="2"/>
  <line x1="355" y1="175" x2="405" y2="175" stroke="#1E4C88" stroke-width="2"/>
  <line x1="282" y1="120" x2="258" y2="90" stroke="#1E4C88" stroke-width="2"/>
  <line x1="318" y1="120" x2="342" y2="90" stroke="#1E4C88" stroke-width="2"/>
  
  <!-- Nodes -->
  <circle cx="300" cy="280" r="10" fill="#1E4C88"/>
  <circle cx="195" cy="175" r="10" fill="#1E4C88"/>
  <circle cx="405" cy="175" r="10" fill="#1E4C88"/>
  <circle cx="258" cy="90" r="10" fill="#1E4C88"/>
  <circle cx="342" cy="90" r="10" fill="#1E4C88"/>
  
  <!-- Small nodes -->
  <circle cx="230" cy="125" r="6" fill="#00CD81"/>
  <circle cx="370" cy="125" r="6" fill="#00CD81"/>
  <circle cx="230" cy="225" r="6" fill="#00CD81"/>
  <circle cx="370" cy="225" r="6" fill="#00CD81"/>
  
  <!-- Binary code -->
  <text x="185" y="320" font-family="monospace" font-size="12" fill="#1E4C88">01001011 01001001</text>
  <text x="345" y="320" font-family="monospace" font-size="12" fill="#1E4C88">01001110 01001111</text>
  <text x="235" y="65" font-family="monospace" font-size="12" fill="#1E4C88">01001110 01001111 01010010 01000111 01000101</text>
</svg> 