<svg width="200" height="60" viewBox="0 0 200 60" fill="none" xmlns="http://www.w3.org/2000/svg">
  <path d="M20 10H40C51.0457 10 60 18.9543 60 30C60 41.0457 51.0457 50 40 50H20V10Z" fill="#1E4C88"/>
  <path d="M20 10H10C9.44772 10 9 10.4477 9 11V49C9 49.5523 9.44772 50 10 50H20V10Z" fill="#00CD81"/>
  <path d="M70 20H80V50H70V20Z" fill="#1E4C88"/>
  <path d="M70 10H80V16H70V10Z" fill="#1E4C88"/>
  <path d="M90 20H100V24C102 21 105 20 108 20C115 20 120 25 120 34V50H110V35C110 32 108 30 105 30C102 30 100 32 100 35V50H90V20Z" fill="#1E4C88"/>
  <path d="M130 20H140V24C142 21 145 20 148 20C155 20 160 25 160 34V50H150V35C150 32 148 30 145 30C142 30 140 32 140 35V50H130V20Z" fill="#1E4C88"/>
  <path d="M170 10H180V50H170V10Z" fill="#1E4C88"/>
</svg> 